<?xml version="1.0" standalone="no"?>
<svg xmlns:xlink="http://www.w3.org/1999/xlink" id="wave" style="transform:rotate(0deg); transition: 0.3s" viewBox="0 0 1440 280" version="1.1" xmlns="http://www.w3.org/2000/svg"><defs><linearGradient id="sw-gradient-0" x1="0" x2="0" y1="1" y2="0"><stop stop-color="rgba(255, 220, 134, 1)" offset="0%"/><stop stop-color="rgba(214, 77, 77, 0.45)" offset="100%"/></linearGradient></defs><path style="transform:translate(0, 0px); opacity:1" fill="url(#sw-gradient-0)" d="M0,224L60,214.7C120,205,240,187,360,168C480,149,600,131,720,121.3C840,112,960,112,1080,126C1200,140,1320,168,1440,191.3C1560,215,1680,233,1800,224C1920,215,2040,177,2160,177.3C2280,177,2400,215,2520,214.7C2640,215,2760,177,2880,158.7C3000,140,3120,140,3240,130.7C3360,121,3480,103,3600,79.3C3720,56,3840,28,3960,37.3C4080,47,4200,93,4320,107.3C4440,121,4560,103,4680,112C4800,121,4920,159,5040,182C5160,205,5280,215,5400,210C5520,205,5640,187,5760,191.3C5880,196,6000,224,6120,214.7C6240,205,6360,159,6480,140C6600,121,6720,131,6840,144.7C6960,159,7080,177,7200,182C7320,187,7440,177,7560,177.3C7680,177,7800,187,7920,168C8040,149,8160,103,8280,98C8400,93,8520,131,8580,149.3L8640,168L8640,280L8580,280C8520,280,8400,280,8280,280C8160,280,8040,280,7920,280C7800,280,7680,280,7560,280C7440,280,7320,280,7200,280C7080,280,6960,280,6840,280C6720,280,6600,280,6480,280C6360,280,6240,280,6120,280C6000,280,5880,280,5760,280C5640,280,5520,280,5400,280C5280,280,5160,280,5040,280C4920,280,4800,280,4680,280C4560,280,4440,280,4320,280C4200,280,4080,280,3960,280C3840,280,3720,280,3600,280C3480,280,3360,280,3240,280C3120,280,3000,280,2880,280C2760,280,2640,280,2520,280C2400,280,2280,280,2160,280C2040,280,1920,280,1800,280C1680,280,1560,280,1440,280C1320,280,1200,280,1080,280C960,280,840,280,720,280C600,280,480,280,360,280C240,280,120,280,60,280L0,280Z"/><defs><linearGradient id="sw-gradient-1" x1="0" x2="0" y1="1" y2="0"><stop stop-color="rgba(255, 220, 134, 1)" offset="0%"/><stop stop-color="rgba(214, 77, 77, 0.73)" offset="100%"/></linearGradient></defs><path style="transform:translate(0, 50px); opacity:0.9" fill="url(#sw-gradient-1)" d="M0,112L60,102.7C120,93,240,75,360,79.3C480,84,600,112,720,107.3C840,103,960,65,1080,60.7C1200,56,1320,84,1440,112C1560,140,1680,168,1800,168C1920,168,2040,140,2160,149.3C2280,159,2400,205,2520,205.3C2640,205,2760,159,2880,135.3C3000,112,3120,112,3240,116.7C3360,121,3480,131,3600,140C3720,149,3840,159,3960,135.3C4080,112,4200,56,4320,42C4440,28,4560,56,4680,98C4800,140,4920,196,5040,200.7C5160,205,5280,159,5400,116.7C5520,75,5640,37,5760,37.3C5880,37,6000,75,6120,98C6240,121,6360,131,6480,140C6600,149,6720,159,6840,163.3C6960,168,7080,168,7200,177.3C7320,187,7440,205,7560,200.7C7680,196,7800,168,7920,135.3C8040,103,8160,65,8280,74.7C8400,84,8520,140,8580,168L8640,196L8640,280L8580,280C8520,280,8400,280,8280,280C8160,280,8040,280,7920,280C7800,280,7680,280,7560,280C7440,280,7320,280,7200,280C7080,280,6960,280,6840,280C6720,280,6600,280,6480,280C6360,280,6240,280,6120,280C6000,280,5880,280,5760,280C5640,280,5520,280,5400,280C5280,280,5160,280,5040,280C4920,280,4800,280,4680,280C4560,280,4440,280,4320,280C4200,280,4080,280,3960,280C3840,280,3720,280,3600,280C3480,280,3360,280,3240,280C3120,280,3000,280,2880,280C2760,280,2640,280,2520,280C2400,280,2280,280,2160,280C2040,280,1920,280,1800,280C1680,280,1560,280,1440,280C1320,280,1200,280,1080,280C960,280,840,280,720,280C600,280,480,280,360,280C240,280,120,280,60,280L0,280Z"/></svg>