<?xml version="1.0" standalone="no"?>
<svg xmlns:xlink="http://www.w3.org/1999/xlink" id="wave" style="transform:rotate(180deg); transition: 0.3s" viewBox="0 0 1440 320" version="1.1" xmlns="http://www.w3.org/2000/svg"><defs><linearGradient id="sw-gradient-0" x1="0" x2="0" y1="1" y2="0"><stop stop-color="rgba(255, 220, 134, 1)" offset="0%"/><stop stop-color="rgba(214, 77, 77, 0.45)" offset="100%"/></linearGradient></defs><path style="transform:translate(0, 0px); opacity:1" fill="url(#sw-gradient-0)" d="M0,256L40,245.3C80,235,160,213,240,192C320,171,400,149,480,138.7C560,128,640,128,720,144C800,160,880,192,960,218.7C1040,245,1120,267,1200,256C1280,245,1360,203,1440,202.7C1520,203,1600,245,1680,245.3C1760,245,1840,203,1920,181.3C2000,160,2080,160,2160,149.3C2240,139,2320,117,2400,90.7C2480,64,2560,32,2640,42.7C2720,53,2800,107,2880,122.7C2960,139,3040,117,3120,128C3200,139,3280,181,3360,208C3440,235,3520,245,3600,240C3680,235,3760,213,3840,218.7C3920,224,4000,256,4080,245.3C4160,235,4240,181,4320,160C4400,139,4480,149,4560,165.3C4640,181,4720,203,4800,208C4880,213,4960,203,5040,202.7C5120,203,5200,213,5280,192C5360,171,5440,117,5520,112C5600,107,5680,149,5720,170.7L5760,192L5760,320L5720,320C5680,320,5600,320,5520,320C5440,320,5360,320,5280,320C5200,320,5120,320,5040,320C4960,320,4880,320,4800,320C4720,320,4640,320,4560,320C4480,320,4400,320,4320,320C4240,320,4160,320,4080,320C4000,320,3920,320,3840,320C3760,320,3680,320,3600,320C3520,320,3440,320,3360,320C3280,320,3200,320,3120,320C3040,320,2960,320,2880,320C2800,320,2720,320,2640,320C2560,320,2480,320,2400,320C2320,320,2240,320,2160,320C2080,320,2000,320,1920,320C1840,320,1760,320,1680,320C1600,320,1520,320,1440,320C1360,320,1280,320,1200,320C1120,320,1040,320,960,320C880,320,800,320,720,320C640,320,560,320,480,320C400,320,320,320,240,320C160,320,80,320,40,320L0,320Z"/><defs><linearGradient id="sw-gradient-1" x1="0" x2="0" y1="1" y2="0"><stop stop-color="rgba(255, 220, 134, 1)" offset="0%"/><stop stop-color="rgba(214, 77, 77, 0.73)" offset="100%"/></linearGradient></defs><path style="transform:translate(0, 50px); opacity:0.9" fill="url(#sw-gradient-1)" d="M0,128L40,117.3C80,107,160,85,240,90.7C320,96,400,128,480,122.7C560,117,640,75,720,69.3C800,64,880,96,960,128C1040,160,1120,192,1200,192C1280,192,1360,160,1440,170.7C1520,181,1600,235,1680,234.7C1760,235,1840,181,1920,154.7C2000,128,2080,128,2160,133.3C2240,139,2320,149,2400,160C2480,171,2560,181,2640,154.7C2720,128,2800,64,2880,48C2960,32,3040,64,3120,112C3200,160,3280,224,3360,229.3C3440,235,3520,181,3600,133.3C3680,85,3760,43,3840,42.7C3920,43,4000,85,4080,112C4160,139,4240,149,4320,160C4400,171,4480,181,4560,186.7C4640,192,4720,192,4800,202.7C4880,213,4960,235,5040,229.3C5120,224,5200,192,5280,154.7C5360,117,5440,75,5520,85.3C5600,96,5680,160,5720,192L5760,224L5760,320L5720,320C5680,320,5600,320,5520,320C5440,320,5360,320,5280,320C5200,320,5120,320,5040,320C4960,320,4880,320,4800,320C4720,320,4640,320,4560,320C4480,320,4400,320,4320,320C4240,320,4160,320,4080,320C4000,320,3920,320,3840,320C3760,320,3680,320,3600,320C3520,320,3440,320,3360,320C3280,320,3200,320,3120,320C3040,320,2960,320,2880,320C2800,320,2720,320,2640,320C2560,320,2480,320,2400,320C2320,320,2240,320,2160,320C2080,320,2000,320,1920,320C1840,320,1760,320,1680,320C1600,320,1520,320,1440,320C1360,320,1280,320,1200,320C1120,320,1040,320,960,320C880,320,800,320,720,320C640,320,560,320,480,320C400,320,320,320,240,320C160,320,80,320,40,320L0,320Z"/></svg>